<?xml version="1.0" encoding="UTF-8" standalone="no"?>
<svg
   xmlns:dc="http://purl.org/dc/elements/1.1/"
   xmlns:cc="http://creativecommons.org/ns#"
   xmlns:rdf="http://www.w3.org/1999/02/22-rdf-syntax-ns#"
   xmlns:svg="http://www.w3.org/2000/svg"
   xmlns="http://www.w3.org/2000/svg"
   xmlns:sodipodi="http://sodipodi.sourceforge.net/DTD/sodipodi-0.dtd"
   xmlns:inkscape="http://www.inkscape.org/namespaces/inkscape"
   viewBox="-100 -100 500 550"
   version="1.1"
   id="svg959"
   sodipodi:docname="map.svg"
   width="500"
   height="550"
   inkscape:version="0.92.5 (2060ec1f9f, 2020-04-08)">
  <metadata
     id="metadata965">
    <rdf:RDF>
      <cc:Work
         rdf:about="">
        <dc:format>image/svg+xml</dc:format>
        <dc:type
           rdf:resource="http://purl.org/dc/dcmitype/StillImage" />
        <dc:title></dc:title>
      </cc:Work>
    </rdf:RDF>
  </metadata>
  <defs
     id="defs963" />
  <sodipodi:namedview
     pagecolor="#ffffff"
     bordercolor="#666666"
     borderopacity="1"
     objecttolerance="10"
     gridtolerance="10"
     guidetolerance="10"
     inkscape:pageopacity="0"
     inkscape:pageshadow="2"
     inkscape:window-width="1920"
     inkscape:window-height="1010"
     id="namedview961"
     showgrid="false"
     inkscape:zoom="0.67416667"
     inkscape:cx="42.771901"
     inkscape:cy="340.50141"
     inkscape:window-x="0"
     inkscape:window-y="34"
     inkscape:window-maximized="1"
     inkscape:current-layer="g4733">
    <inkscape:grid
       type="xygrid"
       id="grid969"
       originx="0"
       originy="0" />
  </sodipodi:namedview>
  <g
     id="g957"
     transform="matrix(0.71428571,0,0,0.71428571,-28.571429,21.428571)">
    <g
       id="g4733"
       transform="translate(0,-70)">
      <path
         id="circle947"
         d="M 250,-100 A 350,350 0 0 0 -100,250 350,350 0 0 0 250,600 350,350 0 0 0 600,250 350,350 0 0 0 250,-100 Z"
         style="stroke:black;fill:#ffffff;stroke-width:1px;"
         inkscape:connector-curvature="0" />
      <path
         d="m 331.33125,32.100392 c -0.58686,1.2e-4 -1.17206,0.04985 -1.73906,0.15039 L 170.66757,60.357429 11.742969,32.250782 c -2.9119999,-0.514999 -5.9025778,0.284766 -8.1675776,2.184766 -2.2649998,1.899999 -3.5765632,4.704718 -3.5765632,7.661723 V 431.48594 c 0,4.851 3.480813,9.00422 8.2578132,9.84922 L 168.92578,469.74805 c 1.141,0.20399 2.3416,0.20399 3.48359,0 l 158.92188,-28.10664 158.92735,28.10664 c 0.57899,0.10304 1.16279,0.15313 1.74179,0.15313 2.331,0 4.61079,-0.81589 6.42579,-2.3379 2.266,-1.9 3.57382,-4.70471 3.57382,-7.66171 V 70.512889 c 0,-4.851 -3.48254,-9.001482 -8.26054,-9.84648 L 333.07305,32.250782 c -0.56751,-0.100996 -1.15492,-0.150521 -1.7418,-0.15039 z M 20.000782,54.021869 160.66798,78.899225 157.60821,108.56719 c -12.32301,-8.54 -24.2015,-11.566413 -40.29648,-11.566413 -42.078013,0 -76.310953,34.232943 -76.310953,76.310953 0,38.88899 61.372323,120.14871 68.370313,129.28671 1.89201,2.471 4.82863,3.91836 7.94064,3.91836 3.11199,0 6.04588,-1.44736 7.93788,-3.91836 3.39901,-4.438 12.84512,-18.44675 28.63712,-43.79375 -3.04174,85.0226 3.37544,130.86362 6.78125,189.175 L 20.000782,423.09962 Z m 301.615238,0.188678 c -9.81506,66.362603 -14.5419,132.168903 -15.79375,194.537113 -1.25185,62.36821 9.96002,116.6213 15.79375,174.54062 l -140.66993,24.87736 c -7.60936,-66.06783 -14.63177,-132.60334 -12.40038,-206.54377 9.9e-4,-0.906 -0.13216,-1.77905 -0.35821,-2.61405 7.85,-16.102 24.62137,-54.12449 25.43243,-65.69609 1.12787,-16.09197 -4.88723,-40.24695 -17.52188,-50.91407 l 4.84804,-43.309771 z m 15.58046,0.940632 144.8043,23.748046 V 447.97969 L 341.33086,423.09962 C 332.04108,368.97497 322.02745,335.16155 322.90937,250.15859 323.7913,165.15563 331.47269,87.606539 337.19648,55.151179 Z M 117.31173,117 c 31.04999,0 56.30898,25.26171 56.30898,56.31173 0,23.81598 -35.45299,77.68075 -56.30898,106.44375 C 96.455715,251.00047 61.000001,197.14772 61.000001,173.31173 61.000001,142.26171 86.261713,117 117.31173,117 Z"
         style="stroke-width:1"
         inkscape:connector-curvature="0" />
      <path
         id="path951"
         d="m 117.31173,138.49219 c -19.199017,0 -34.819545,15.62052 -34.819545,34.81954 0,19.19899 15.620528,34.81679 34.819545,34.81679 19.19899,0 34.81679,-15.6188 34.81679,-34.81679 0,-19.19801 -15.6178,-34.81954 -34.81679,-34.81954 z m 0,20.00195 c 8.17098,0 14.81757,6.64658 14.81757,14.81759 0,8.17098 -6.64659,14.81757 -14.81757,14.81757 -8.17001,0 -14.81759,-6.64659 -14.81759,-14.81757 0,-8.17001 6.64658,-14.81759 14.81759,-14.81759 z"
         style="stroke-width:1"
         inkscape:connector-curvature="0" />
      <path
         inkscape:connector-curvature="0"
         id="path953"
         d="M 458.00001,298 C 463.522,298 468,293.52301 468,288.00001 V 102 c 0,-5.523005 -4.478,-9.999995 -9.99999,-9.999995 C 452.478,92.000005 448,96.476995 448,102 v 186.00001 c 0,5.523 4.478,9.99999 10.00001,9.99999 z"
         style="stroke-width:1" />
      <path
         inkscape:connector-curvature="0"
         id="path955"
         d="M 458.00001,368 C 463.522,368 468,363.52301 468,358.00001 v -28 C 468,324.47701 463.522,320 458.00001,320 452.478,320 448,324.47701 448,330.00001 v 28 c 0,5.523 4.478,9.99999 10.00001,9.99999 z"
         style="stroke-width:1" />
      <path
         style="fill:#ffffff;stroke:black;stroke-width:1px;stroke-linecap:butt;stroke-linejoin:miter;stroke-opacity:0.9776786"
         d="m 250,670 98,-98 H 152 Z"
         id="path4801"
         inkscape:connector-curvature="0"
         sodipodi:nodetypes="cccc" />
    </g>
  </g>
</svg>
